<svg xmlns="http://www.w3.org/2000/svg" viewBox="0 0 600 380" width="100%" height="100%">
  <defs>
    <linearGradient id="bgGrad" x1="0%" y1="0%" x2="100%" y2="100%">
      <stop offset="0%" stop-color="#020512"/>
      <stop offset="60%" stop-color="#070c24"/>
      <stop offset="100%" stop-color="#01020a"/>
    </linearGradient>
    <filter id="glow" x="-20%" y="-20%" width="140%" height="140%">
      <feGaussianBlur stdDeviation="6" result="blur"/>
      <feComposite in="SourceGraphic" in2="blur" operator="over"/>
    </filter>
  </defs>

  <!-- Background Base -->
  <rect width="600" height="380" rx="16" fill="url(#bgGrad)"/>

  <!-- High-Tech Coordinate Grid -->
  <g stroke="#ff9100" stroke-opacity="0.12" stroke-width="1">
    <line x1="50" y1="0" x2="50" y2="380"/>
    <line x1="150" y1="0" x2="150" y2="380"/>
    <line x1="250" y1="0" x2="250" y2="380"/>
    <line x1="350" y1="0" x2="350" y2="380"/>
    <line x1="450" y1="0" x2="450" y2="380"/>
    <line x1="550" y1="0" x2="550" y2="380"/>
    <line x1="0" y1="60" x2="600" y2="60"/>
    <line x1="0" y1="140" x2="600" y2="140"/>
    <line x1="0" y1="220" x2="600" y2="220"/>
    <line x1="0" y1="300" x2="600" y2="300"/>
  </g>

  <!-- Outer Neon Trim -->
  <rect x="8" y="8" width="584" height="364" rx="12" fill="none" stroke="#ff9100" stroke-width="2" stroke-opacity="0.4"/>
  <rect x="14" y="14" width="572" height="352" rx="8" fill="none" stroke="#ffd600" stroke-width="1" stroke-opacity="0.2"/>

  <!-- Category Watermark Banner -->
  <text x="32" y="44" font-family="'Segoe UI', monospace" font-size="12" font-weight="900" fill="#ff9100" letter-spacing="3" opacity="0.85">CYBER WORD &amp; DECRYPTION 45-THEME LAB</text>

  <!-- Graphic Icon Payload -->
  <g>
    
      <!-- Rotating Circular Wheel of Letters -->
      <g transform="translate(300, 160)">
        <circle cx="0" cy="0" r="85" fill="#140902" stroke="#ff9100" stroke-width="3"/>
        <circle cx="0" cy="0" r="65" fill="none" stroke="#ffd600" stroke-width="1" stroke-dasharray="6,4"/>
        <!-- Radial Letter Nodes -->
        <!-- Center submit hub -->
        <circle cx="0" cy="0" r="22" fill="#ff9100" filter="url(#glow)"/>
        <text x="0" y="6" font-family="monospace" font-weight="bold" font-size="16" fill="#000" text-anchor="middle">GO</text>

        <!-- 6 Outer Letters: S Y N T A X -->
        <circle cx="0" cy="-60" r="18" fill="#2d1204" stroke="#ffd600" stroke-width="2"/>
        <text x="0" y="-53" font-family="monospace" font-weight="bold" font-size="18" fill="#ffd600" text-anchor="middle">S</text>

        <circle cx="52" cy="-30" r="18" fill="#2d1204" stroke="#ffd600" stroke-width="2"/>
        <text x="52" y="-23" font-family="monospace" font-weight="bold" font-size="18" fill="#ffd600" text-anchor="middle">Y</text>

        <circle cx="52" cy="30" r="18" fill="#2d1204" stroke="#ffd600" stroke-width="2"/>
        <text x="52" y="37" font-family="monospace" font-weight="bold" font-size="18" fill="#ffd600" text-anchor="middle">N</text>

        <circle cx="0" cy="60" r="18" fill="#2d1204" stroke="#ffd600" stroke-width="2"/>
        <text x="0" y="67" font-family="monospace" font-weight="bold" font-size="18" fill="#ffd600" text-anchor="middle">T</text>

        <circle cx="-52" cy="30" r="18" fill="#2d1204" stroke="#ffd600" stroke-width="2"/>
        <text x="-52" y="37" font-family="monospace" font-weight="bold" font-size="18" fill="#ffd600" text-anchor="middle">A</text>

        <circle cx="-52" cy="-30" r="18" fill="#2d1204" stroke="#ffd600" stroke-width="2"/>
        <text x="-52" y="-23" font-family="monospace" font-weight="bold" font-size="18" fill="#ffd600" text-anchor="middle">X</text>
      </g>
      <text x="300" y="280" font-family="monospace" font-weight="bold" font-size="14" fill="#ff9100" text-anchor="middle">SOLVED: "SYNTAX" (+150 PTS)</text>
    
  </g>

  <!-- Game Title Bottom Bar -->
  <rect x="24" y="318" width="552" height="42" rx="8" fill="#040618" fill-opacity="0.9" stroke="#ff9100" stroke-width="1" stroke-opacity="0.5"/>
  <text x="42" y="345" font-family="'Segoe UI', system-ui, sans-serif" font-size="17" font-weight="800" fill="#ffffff" letter-spacing="1">SYNTAX ANAGRAM SCRAMBLER</text>
  <text x="550" y="344" text-anchor="end" font-family="monospace" font-size="11" font-weight="700" fill="#ff9100" letter-spacing="1">45 STAGES</text>
</svg>