<svg xmlns="http://www.w3.org/2000/svg" viewBox="0 0 600 380" width="100%" height="100%">
  <defs>
    <linearGradient id="bgGrad" x1="0%" y1="0%" x2="100%" y2="100%">
      <stop offset="0%" stop-color="#020512"/>
      <stop offset="60%" stop-color="#070c24"/>
      <stop offset="100%" stop-color="#01020a"/>
    </linearGradient>
    <filter id="glow" x="-20%" y="-20%" width="140%" height="140%">
      <feGaussianBlur stdDeviation="6" result="blur"/>
      <feComposite in="SourceGraphic" in2="blur" operator="over"/>
    </filter>
  </defs>

  <!-- Background Base -->
  <rect width="600" height="380" rx="16" fill="url(#bgGrad)"/>

  <!-- High-Tech Coordinate Grid -->
  <g stroke="#00ff88" stroke-opacity="0.12" stroke-width="1">
    <line x1="50" y1="0" x2="50" y2="380"/>
    <line x1="150" y1="0" x2="150" y2="380"/>
    <line x1="250" y1="0" x2="250" y2="380"/>
    <line x1="350" y1="0" x2="350" y2="380"/>
    <line x1="450" y1="0" x2="450" y2="380"/>
    <line x1="550" y1="0" x2="550" y2="380"/>
    <line x1="0" y1="60" x2="600" y2="60"/>
    <line x1="0" y1="140" x2="600" y2="140"/>
    <line x1="0" y1="220" x2="600" y2="220"/>
    <line x1="0" y1="300" x2="600" y2="300"/>
  </g>

  <!-- Outer Neon Trim -->
  <rect x="8" y="8" width="584" height="364" rx="12" fill="none" stroke="#00ff88" stroke-width="2" stroke-opacity="0.4"/>
  <rect x="14" y="14" width="572" height="352" rx="8" fill="none" stroke="#ffd600" stroke-width="1" stroke-opacity="0.2"/>

  <!-- Category Watermark Banner -->
  <text x="32" y="44" font-family="'Segoe UI', monospace" font-size="12" font-weight="900" fill="#00ff88" letter-spacing="3" opacity="0.85">CYBER WORD &amp; DECRYPTION 45-THEME LAB</text>

  <!-- Graphic Icon Payload -->
  <g>
    
      <!-- Wordle Grid (5 Columns x 3 Rows shown) -->
      <g transform="translate(135, 75)">
        <!-- Row 1: Mixed tiles -->
        <rect x="0" y="0" width="55" height="55" rx="6" fill="#1b5e20" stroke="#00ff88" stroke-width="2"/>
        <text x="27" y="38" font-family="monospace" font-weight="bold" font-size="28" fill="#fff" text-anchor="middle">C</text>
        <rect x="65" y="0" width="55" height="55" rx="6" fill="#f57f17" stroke="#ffd600" stroke-width="2"/>
        <text x="92" y="38" font-family="monospace" font-weight="bold" font-size="28" fill="#fff" text-anchor="middle">Y</text>
        <rect x="130" y="0" width="55" height="55" rx="6" fill="#263238" stroke="#455a64" stroke-width="2"/>
        <text x="157" y="38" font-family="monospace" font-weight="bold" font-size="28" fill="#90a4ae" text-anchor="middle">B</text>
        <rect x="195" y="0" width="55" height="55" rx="6" fill="#263238" stroke="#455a64" stroke-width="2"/>
        <text x="222" y="38" font-family="monospace" font-weight="bold" font-size="28" fill="#90a4ae" text-anchor="middle">E</text>
        <rect x="260" y="0" width="55" height="55" rx="6" fill="#1b5e20" stroke="#00ff88" stroke-width="2"/>
        <text x="287" y="38" font-family="monospace" font-weight="bold" font-size="28" fill="#fff" text-anchor="middle">R</text>

        <!-- Row 2: All Green Solved Password -->
        <g transform="translate(0, 65)" filter="url(#glow)">
          <rect x="0" y="0" width="55" height="55" rx="6" fill="#00e676" stroke="#fff" stroke-width="2"/>
          <text x="27" y="38" font-family="monospace" font-weight="bold" font-size="28" fill="#000" text-anchor="middle">P</text>
          <rect x="65" y="0" width="55" height="55" rx="6" fill="#00e676" stroke="#fff" stroke-width="2"/>
          <text x="92" y="38" font-family="monospace" font-weight="bold" font-size="28" fill="#000" text-anchor="middle">R</text>
          <rect x="130" y="0" width="55" height="55" rx="6" fill="#00e676" stroke="#fff" stroke-width="2"/>
          <text x="157" y="38" font-family="monospace" font-weight="bold" font-size="28" fill="#000" text-anchor="middle">O</text>
          <rect x="195" y="0" width="55" height="55" rx="6" fill="#00e676" stroke="#fff" stroke-width="2"/>
          <text x="222" y="38" font-family="monospace" font-weight="bold" font-size="28" fill="#000" text-anchor="middle">X</text>
          <rect x="260" y="0" width="55" height="55" rx="6" fill="#00e676" stroke="#fff" stroke-width="2"/>
          <text x="287" y="38" font-family="monospace" font-weight="bold" font-size="28" fill="#000" text-anchor="middle">Y</text>
        </g>
      </g>
      <!-- Access Granted Decrypted Banner -->
      <text x="300" y="235" font-family="monospace" font-weight="bold" font-size="15" fill="#00ff88" text-anchor="middle" letter-spacing="3">&gt; ACCESS GRANTED: 100%</text>
    
  </g>

  <!-- Game Title Bottom Bar -->
  <rect x="24" y="318" width="552" height="42" rx="8" fill="#040618" fill-opacity="0.9" stroke="#00ff88" stroke-width="1" stroke-opacity="0.5"/>
  <text x="42" y="345" font-family="'Segoe UI', system-ui, sans-serif" font-size="17" font-weight="800" fill="#ffffff" letter-spacing="1">TERMINAL WORDLE: 5-LETTER HACKING</text>
  <text x="550" y="344" text-anchor="end" font-family="monospace" font-size="11" font-weight="700" fill="#00ff88" letter-spacing="1">45 STAGES</text>
</svg>