<svg xmlns="http://www.w3.org/2000/svg" viewBox="0 0 600 380" width="100%" height="100%">
  <defs>
    <linearGradient id="bgGrad" x1="0%" y1="0%" x2="100%" y2="100%">
      <stop offset="0%" stop-color="#020512"/>
      <stop offset="60%" stop-color="#070c24"/>
      <stop offset="100%" stop-color="#01020a"/>
    </linearGradient>
    <filter id="glow" x="-20%" y="-20%" width="140%" height="140%">
      <feGaussianBlur stdDeviation="6" result="blur"/>
      <feComposite in="SourceGraphic" in2="blur" operator="over"/>
    </filter>
  </defs>

  <!-- Background Base -->
  <rect width="600" height="380" rx="16" fill="url(#bgGrad)"/>

  <!-- High-Tech Coordinate Grid -->
  <g stroke="#00f0ff" stroke-opacity="0.12" stroke-width="1">
    <line x1="50" y1="0" x2="50" y2="380"/>
    <line x1="150" y1="0" x2="150" y2="380"/>
    <line x1="250" y1="0" x2="250" y2="380"/>
    <line x1="350" y1="0" x2="350" y2="380"/>
    <line x1="450" y1="0" x2="450" y2="380"/>
    <line x1="550" y1="0" x2="550" y2="380"/>
    <line x1="0" y1="60" x2="600" y2="60"/>
    <line x1="0" y1="140" x2="600" y2="140"/>
    <line x1="0" y1="220" x2="600" y2="220"/>
    <line x1="0" y1="300" x2="600" y2="300"/>
  </g>

  <!-- Outer Neon Trim -->
  <rect x="8" y="8" width="584" height="364" rx="12" fill="none" stroke="#00f0ff" stroke-width="2" stroke-opacity="0.4"/>
  <rect x="14" y="14" width="572" height="352" rx="8" fill="none" stroke="#ff007f" stroke-width="1" stroke-opacity="0.2"/>

  <!-- Category Watermark Banner -->
  <text x="32" y="44" font-family="'Segoe UI', monospace" font-size="12" font-weight="900" fill="#00f0ff" letter-spacing="3" opacity="0.85">CYBER WORD &amp; DECRYPTION 45-THEME LAB</text>

  <!-- Graphic Icon Payload -->
  <g>
    
      <!-- Matrix Grid 5x5 sample -->
      <g transform="translate(160, 65)">
        <rect x="0" y="0" width="280" height="175" rx="8" fill="#071224" stroke="#00f0ff" stroke-width="2"/>
        <!-- Matrix letters -->
        <text x="30" y="35" font-family="monospace" font-size="20" fill="#4dd0e1">N</text>
        <text x="85" y="35" font-family="monospace" font-size="20" fill="#4dd0e1">E</text>
        <text x="140" y="35" font-family="monospace" font-size="20" fill="#4dd0e1">U</text>
        <text x="195" y="35" font-family="monospace" font-size="20" fill="#4dd0e1">R</text>
        <text x="250" y="35" font-family="monospace" font-size="20" fill="#4dd0e1">O</text>

        <!-- Highlighted Word Capsule: "QUANTUM" -->
        <rect x="15" y="55" width="250" height="36" rx="18" fill="rgba(255,0,127,0.3)" stroke="#ff007f" stroke-width="2" filter="url(#glow)"/>
        <text x="30" y="80" font-family="monospace" font-weight="bold" font-size="20" fill="#fff">Q</text>
        <text x="70" y="80" font-family="monospace" font-weight="bold" font-size="20" fill="#fff">U</text>
        <text x="110" y="80" font-family="monospace" font-weight="bold" font-size="20" fill="#fff">A</text>
        <text x="150" y="80" font-family="monospace" font-weight="bold" font-size="20" fill="#fff">N</text>
        <text x="190" y="80" font-family="monospace" font-weight="bold" font-size="20" fill="#fff">T</text>
        <text x="230" y="80" font-family="monospace" font-weight="bold" font-size="20" fill="#fff">U</text>

        <text x="30" y="125" font-family="monospace" font-size="20" fill="#4dd0e1">C</text>
        <text x="85" y="125" font-family="monospace" font-size="20" fill="#4dd0e1">Y</text>
        <text x="140" y="125" font-family="monospace" font-size="20" fill="#4dd0e1">B</text>
        <text x="195" y="125" font-family="monospace" font-size="20" fill="#4dd0e1">E</text>
        <text x="250" y="125" font-family="monospace" font-size="20" fill="#4dd0e1">R</text>

        <text x="30" y="160" font-family="monospace" font-size="20" fill="#4dd0e1">D</text>
        <text x="85" y="160" font-family="monospace" font-size="20" fill="#4dd0e1">A</text>
        <text x="140" y="160" font-family="monospace" font-size="20" fill="#4dd0e1">T</text>
        <text x="195" y="160" font-family="monospace" font-size="20" fill="#4dd0e1">A</text>
        <text x="250" y="160" font-family="monospace" font-size="20" fill="#4dd0e1">S</text>
      </g>
      <!-- Found Checkmark Tag -->
      <text x="300" y="275" font-family="monospace" font-weight="bold" font-size="14" fill="#00f0ff" text-anchor="middle">FOUND: QUANTUM ✓  CYBER ✓</text>
    
  </g>

  <!-- Game Title Bottom Bar -->
  <rect x="24" y="318" width="552" height="42" rx="8" fill="#040618" fill-opacity="0.9" stroke="#00f0ff" stroke-width="1" stroke-opacity="0.5"/>
  <text x="42" y="345" font-family="'Segoe UI', system-ui, sans-serif" font-size="17" font-weight="800" fill="#ffffff" letter-spacing="1">CYBER WORD SEARCH: MATRIX HUNTER</text>
  <text x="550" y="344" text-anchor="end" font-family="monospace" font-size="11" font-weight="700" fill="#00f0ff" letter-spacing="1">45 STAGES</text>
</svg>