<svg xmlns="http://www.w3.org/2000/svg" viewBox="0 0 600 380" width="100%" height="100%">
  <defs>
    <linearGradient id="bgGrad" x1="0%" y1="0%" x2="100%" y2="100%">
      <stop offset="0%" stop-color="#020512"/>
      <stop offset="60%" stop-color="#070c24"/>
      <stop offset="100%" stop-color="#01020a"/>
    </linearGradient>
    <filter id="glow" x="-20%" y="-20%" width="140%" height="140%">
      <feGaussianBlur stdDeviation="6" result="blur"/>
      <feComposite in="SourceGraphic" in2="blur" operator="over"/>
    </filter>
  </defs>

  <!-- Background Base -->
  <rect width="600" height="380" rx="16" fill="url(#bgGrad)"/>

  <!-- High-Tech Coordinate Grid -->
  <g stroke="#d500f9" stroke-opacity="0.12" stroke-width="1">
    <line x1="50" y1="0" x2="50" y2="380"/>
    <line x1="150" y1="0" x2="150" y2="380"/>
    <line x1="250" y1="0" x2="250" y2="380"/>
    <line x1="350" y1="0" x2="350" y2="380"/>
    <line x1="450" y1="0" x2="450" y2="380"/>
    <line x1="550" y1="0" x2="550" y2="380"/>
    <line x1="0" y1="60" x2="600" y2="60"/>
    <line x1="0" y1="140" x2="600" y2="140"/>
    <line x1="0" y1="220" x2="600" y2="220"/>
    <line x1="0" y1="300" x2="600" y2="300"/>
  </g>

  <!-- Outer Neon Trim -->
  <rect x="8" y="8" width="584" height="364" rx="12" fill="none" stroke="#d500f9" stroke-width="2" stroke-opacity="0.4"/>
  <rect x="14" y="14" width="572" height="352" rx="8" fill="none" stroke="#00e5ff" stroke-width="1" stroke-opacity="0.2"/>

  <!-- Category Watermark Banner -->
  <text x="32" y="44" font-family="'Segoe UI', monospace" font-size="12" font-weight="900" fill="#d500f9" letter-spacing="3" opacity="0.85">CYBER WORD &amp; DECRYPTION 45-THEME LAB</text>

  <!-- Graphic Icon Payload -->
  <g>
    
      <!-- 4 Categories Grouped Banner Rows -->
      <g transform="translate(140, 75)">
        <!-- Solved Category 1 (Yellow Banner) -->
        <rect x="0" y="0" width="320" height="42" rx="6" fill="#ffd600" filter="url(#glow)"/>
        <text x="160" y="20" font-family="'Segoe UI', sans-serif" font-weight="bold" font-size="13" fill="#000" text-anchor="middle">PROGRAMMING LANGUAGES</text>
        <text x="160" y="34" font-family="monospace" font-size="11" fill="#222" text-anchor="middle">Python, Rust, Java, Kotlin</text>

        <!-- Solved Category 2 (Cyan Banner) -->
        <rect x="0" y="50" width="320" height="42" rx="6" fill="#00e5ff"/>
        <text x="160" y="70" font-family="'Segoe UI', sans-serif" font-weight="bold" font-size="13" fill="#000" text-anchor="middle">HARDWARE COMPONENTS</text>
        <text x="160" y="84" font-family="monospace" font-size="11" fill="#003" text-anchor="middle">RAM, GPU, CPU, SSD</text>

        <!-- Unsolved 4x2 Tile Grid Sample -->
        <g transform="translate(0, 100)">
          <rect x="0" y="0" width="75" height="42" rx="6" fill="#140828" stroke="#d500f9" stroke-width="1.5"/>
          <text x="37" y="26" font-family="monospace" font-size="11" fill="#fff" text-anchor="middle">FIREWALL</text>

          <rect x="82" y="0" width="75" height="42" rx="6" fill="#140828" stroke="#d500f9" stroke-width="1.5"/>
          <text x="119" y="26" font-family="monospace" font-size="11" fill="#fff" text-anchor="middle">ROUTER</text>

          <rect x="164" y="0" width="75" height="42" rx="6" fill="#140828" stroke="#d500f9" stroke-width="1.5"/>
          <text x="201" y="26" font-family="monospace" font-size="11" fill="#fff" text-anchor="middle">SWITCH</text>

          <rect x="246" y="0" width="75" height="42" rx="6" fill="#140828" stroke="#d500f9" stroke-width="1.5"/>
          <text x="283" y="26" font-family="monospace" font-size="11" fill="#fff" text-anchor="middle">BRIDGE</text>
        </g>
      </g>
      <text x="300" y="275" font-family="monospace" font-weight="bold" font-size="13" fill="#d500f9" text-anchor="middle">MISTAKES REMAINING: ● ● ● ●</text>
    
  </g>

  <!-- Game Title Bottom Bar -->
  <rect x="24" y="318" width="552" height="42" rx="8" fill="#040618" fill-opacity="0.9" stroke="#d500f9" stroke-width="1" stroke-opacity="0.5"/>
  <text x="42" y="345" font-family="'Segoe UI', system-ui, sans-serif" font-size="17" font-weight="800" fill="#ffffff" letter-spacing="1">LEXICON LINK: WORD ASSOCIATION</text>
  <text x="550" y="344" text-anchor="end" font-family="monospace" font-size="11" font-weight="700" fill="#d500f9" letter-spacing="1">45 STAGES</text>
</svg>