<svg xmlns="http://www.w3.org/2000/svg" viewBox="0 0 600 380" width="100%" height="100%">
  <defs>
    <linearGradient id="bgGrad" x1="0%" y1="0%" x2="100%" y2="100%">
      <stop offset="0%" stop-color="#050314"/>
      <stop offset="60%" stop-color="#0c0721"/>
      <stop offset="100%" stop-color="#02010a"/>
    </linearGradient>
    <filter id="glow" x="-20%" y="-20%" width="140%" height="140%">
      <feGaussianBlur stdDeviation="6" result="blur"/>
      <feComposite in="SourceGraphic" in2="blur" operator="over"/>
    </filter>
  </defs>

  <!-- Background Base -->
  <rect width="600" height="380" rx="16" fill="url(#bgGrad)"/>

  <!-- High-Tech Coordinate Grid -->
  <g stroke="#39ff14" stroke-opacity="0.12" stroke-width="1">
    <line x1="50" y1="0" x2="50" y2="380"/>
    <line x1="150" y1="0" x2="150" y2="380"/>
    <line x1="250" y1="0" x2="250" y2="380"/>
    <line x1="350" y1="0" x2="350" y2="380"/>
    <line x1="450" y1="0" x2="450" y2="380"/>
    <line x1="550" y1="0" x2="550" y2="380"/>
    <line x1="0" y1="60" x2="600" y2="60"/>
    <line x1="0" y1="140" x2="600" y2="140"/>
    <line x1="0" y1="220" x2="600" y2="220"/>
    <line x1="0" y1="300" x2="600" y2="300"/>
  </g>

  <!-- Outer Neon Trim -->
  <rect x="8" y="8" width="584" height="364" rx="12" fill="none" stroke="#39ff14" stroke-width="2" stroke-opacity="0.4"/>
  <rect x="14" y="14" width="572" height="352" rx="8" fill="none" stroke="#ffd600" stroke-width="1" stroke-opacity="0.2"/>

  <!-- Category Watermark Banner -->
  <text x="32" y="44" font-family="'Segoe UI', monospace" font-size="12" font-weight="900" fill="#39ff14" letter-spacing="3" opacity="0.85">CYBER CARD &amp; CASINO 45-THEME DECK</text>

  <!-- Graphic Icon Payload -->
  <g>
    
      <!-- Blackjack Table Arc -->
      <path d="M120,70 Q300,160 480,70 L510,290 Q300,320 90,290 Z" fill="#081e14" stroke="#39ff14" stroke-width="4"/>
      <!-- Dealer Cards (Face Down & Face Up) -->
      <rect x="230" y="90" width="60" height="85" rx="6" fill="#14021a" stroke="#ff007f" stroke-width="2"/>
      <rect x="240" y="100" width="40" height="65" rx="4" fill="#2d0a3d"/>
      <rect x="300" y="90" width="60" height="85" rx="6" fill="#0d261e" stroke="#00f0ff" stroke-width="2"/>
      <text x="312" y="115" font-family="monospace" font-weight="bold" font-size="18" fill="#00f0ff">10</text>
      <text x="330" y="145" font-family="sans-serif" font-size="24" fill="#00f0ff" text-anchor="middle">♠</text>
      <!-- Player Cards (Ace & Jack = 21 BLACKJACK) -->
      <g filter="url(#glow)">
        <rect x="200" y="195" width="68" height="95" rx="6" fill="#072018" stroke="#39ff14" stroke-width="3"/>
        <text x="215" y="222" font-family="monospace" font-weight="bold" font-size="20" fill="#39ff14">A</text>
        <text x="234" y="255" font-family="sans-serif" font-size="30" fill="#39ff14" text-anchor="middle">♠</text>
        <rect x="275" y="195" width="68" height="95" rx="6" fill="#072018" stroke="#ffd600" stroke-width="3"/>
        <text x="290" y="222" font-family="monospace" font-weight="bold" font-size="20" fill="#ffd600">J</text>
        <text x="309" y="255" font-family="sans-serif" font-size="30" fill="#ffd600" text-anchor="middle">♣</text>
      </g>
      <!-- Casino Betting Chips -->
      <circle cx="395" cy="220" r="22" fill="#ffd600" stroke="#000" stroke-width="4" stroke-dasharray="8,5"/>
      <text x="395" y="226" font-family="monospace" font-weight="bold" font-size="14" fill="#000" text-anchor="middle">500</text>
      <circle cx="430" cy="245" r="20" fill="#ff007f" stroke="#fff" stroke-width="4" stroke-dasharray="6,4"/>
      <text x="430" y="251" font-family="monospace" font-weight="bold" font-size="13" fill="#fff" text-anchor="middle">100</text>
    
  </g>

  <!-- Game Title Bottom Bar -->
  <rect x="24" y="318" width="552" height="42" rx="8" fill="#060214" fill-opacity="0.9" stroke="#39ff14" stroke-width="1" stroke-opacity="0.5"/>
  <text x="42" y="345" font-family="'Segoe UI', system-ui, sans-serif" font-size="17" font-weight="800" fill="#ffffff" letter-spacing="1">NEON BLACKJACK 2099: HIGH ROLLER</text>
  <text x="550" y="344" text-anchor="end" font-family="monospace" font-size="11" font-weight="700" fill="#39ff14" letter-spacing="1">45 STAGES</text>
</svg>