<svg xmlns="http://www.w3.org/2000/svg" viewBox="0 0 600 380" width="100%" height="100%">
  <defs>
    <linearGradient id="bgGrad" x1="0%" y1="0%" x2="100%" y2="100%">
      <stop offset="0%" stop-color="#04020f"/>
      <stop offset="60%" stop-color="#0d0824"/>
      <stop offset="100%" stop-color="#020108"/>
    </linearGradient>
    <filter id="glow" x="-20%" y="-20%" width="140%" height="140%">
      <feGaussianBlur stdDeviation="6" result="blur"/>
      <feComposite in="SourceGraphic" in2="blur" operator="over"/>
    </filter>
  </defs>

  <!-- Background Base -->
  <rect width="600" height="380" rx="16" fill="url(#bgGrad)"/>

  <!-- High-Tech Coordinate Grid -->
  <g stroke="#ffab00" stroke-opacity="0.12" stroke-width="1">
    <line x1="50" y1="0" x2="50" y2="380"/>
    <line x1="150" y1="0" x2="150" y2="380"/>
    <line x1="250" y1="0" x2="250" y2="380"/>
    <line x1="350" y1="0" x2="350" y2="380"/>
    <line x1="450" y1="0" x2="450" y2="380"/>
    <line x1="550" y1="0" x2="550" y2="380"/>
    <line x1="0" y1="60" x2="600" y2="60"/>
    <line x1="0" y1="140" x2="600" y2="140"/>
    <line x1="0" y1="220" x2="600" y2="220"/>
    <line x1="0" y1="300" x2="600" y2="300"/>
  </g>

  <!-- Outer Neon Trim -->
  <rect x="8" y="8" width="584" height="364" rx="12" fill="none" stroke="#ffab00" stroke-width="2" stroke-opacity="0.4"/>
  <rect x="14" y="14" width="572" height="352" rx="8" fill="none" stroke="#7c4dff" stroke-width="1" stroke-opacity="0.2"/>

  <!-- Category Watermark Banner -->
  <text x="32" y="44" font-family="'Segoe UI', monospace" font-size="12" font-weight="900" fill="#ffab00" letter-spacing="3" opacity="0.85">PHYSICS ENGINE 45-THEME LAB</text>

  <!-- Graphic Icon Payload -->
  <g>
    
      <!-- Trebuchet A-Frame Chassis -->
      <polygon points="200,280 260,150 280,150 340,280" fill="#1a2332" stroke="#ffab00" stroke-width="4"/>
      <!-- Counterweight Beam (Rotating Arm) -->
      <line x1="210" y1="210" x2="380" y2="110" stroke="#7c4dff" stroke-width="8" stroke-linecap="round"/>
      <!-- Heavy Counterweight Box -->
      <rect x="180" y="195" width="45" height="45" rx="4" fill="#b71c1c" stroke="#ffab00" stroke-width="3"/>
      <!-- Pivot Axle Pin -->
      <circle cx="270" cy="150" r="10" fill="#ffd600"/>
      <!-- Sling & Payload release -->
      <line x1="380" y1="110" x2="420" y2="80" stroke="#fff" stroke-width="3"/>
      <circle cx="425" cy="75" r="14" fill="#00f0ff" filter="url(#glow)"/>
      <!-- High Orbit Trajectory -->
      <path d="M425,75 Q470,40 510,120" stroke="#39ff14" stroke-width="4" stroke-dasharray="6,4" fill="none"/>
    
  </g>

  <!-- Game Title Bottom Bar -->
  <rect x="24" y="318" width="552" height="42" rx="8" fill="#060214" fill-opacity="0.9" stroke="#ffab00" stroke-width="1" stroke-opacity="0.5"/>
  <text x="42" y="345" font-family="'Segoe UI', system-ui, sans-serif" font-size="17" font-weight="800" fill="#ffffff" letter-spacing="1">ORBITAL TREBUCHET</text>
  <text x="550" y="344" text-anchor="end" font-family="monospace" font-size="11" font-weight="700" fill="#ffab00" letter-spacing="1">45 STAGES</text>
</svg>