<svg xmlns="http://www.w3.org/2000/svg" viewBox="0 0 600 380" width="600" height="380">
  <defs>
    <linearGradient id="bgGrad" x1="0%" y1="0%" x2="100%" y2="100%">
      <stop offset="0%" stop-color="#140824"/>
      <stop offset="60%" stop-color="#0a0414"/>
      <stop offset="100%" stop-color="#020108"/>
    </linearGradient>
    <filter id="glow" x="-20%" y="-20%" width="140%" height="140%">
      <feGaussianBlur stdDeviation="6" result="blur"/>
      <feComposite in="SourceGraphic" in2="blur" operator="over"/>
    </filter>
  </defs>

  <!-- Background Base -->
  <rect width="600" height="380" rx="16" fill="url(#bgGrad)"/>

  <!-- High-Tech Coordinate Grid -->
  <g stroke="#00e676" stroke-opacity="0.12" stroke-width="1">
    <line x1="50" y1="0" x2="50" y2="380"/>
    <line x1="150" y1="0" x2="150" y2="380"/>
    <line x1="250" y1="0" x2="250" y2="380"/>
    <line x1="350" y1="0" x2="350" y2="380"/>
    <line x1="450" y1="0" x2="450" y2="380"/>
    <line x1="550" y1="0" x2="550" y2="380"/>
    <line x1="0" y1="60" x2="600" y2="60"/>
    <line x1="0" y1="140" x2="600" y2="140"/>
    <line x1="0" y1="220" x2="600" y2="220"/>
    <line x1="0" y1="300" x2="600" y2="300"/>
  </g>

  <!-- Outer Neon Trim -->
  <rect x="8" y="8" width="584" height="364" rx="12" fill="none" stroke="#00e676" stroke-width="2" stroke-opacity="0.4"/>
  <rect x="14" y="14" width="572" height="352" rx="8" fill="none" stroke="#00e5ff" stroke-width="1" stroke-opacity="0.2"/>

  <!-- Category Watermark Banner -->
  <text x="32" y="44" font-family="'Segoe UI', monospace" font-size="12" font-weight="900" fill="#00e676" letter-spacing="3" opacity="0.85">CYBER RPG &amp; ADVENTURES 45-THEME</text>

  <!-- Graphic Icon Payload -->
  <g>
    
      <!-- Hexagonal Proving Ground Grid -->
      <polygon points="300,80 390,130 390,230 300,280 210,230 210,130" fill="#081c10" stroke="#00e676" stroke-width="2"/>
      <!-- Core Drone Unit -->
      <circle cx="300" cy="180" r="28" fill="#103620" stroke="#00e676" stroke-width="3" filter="url(#glow)"/>
      <circle cx="300" cy="180" r="12" fill="#00e5ff" filter="url(#glow)"/>
      <!-- 4 Attached Modular Upgrade Arms -->
      <!-- Top Gatling Cannons -->
      <rect x="294" y="115" width="12" height="36" rx="2" fill="#00e676"/>
      <line x1="297" y1="115" x2="297" y2="90" stroke="#ffd600" stroke-width="3" filter="url(#glow)"/>
      <line x1="303" y1="115" x2="303" y2="90" stroke="#ffd600" stroke-width="3" filter="url(#glow)"/>
      <!-- Left Shield Wing -->
      <polygon points="265,160 215,180 265,200" fill="#00e5ff" fill-opacity="0.8"/>
      <!-- Right Plasma Launcher -->
      <polygon points="335,160 385,180 335,200" fill="#ff007f" fill-opacity="0.8"/>
      <!-- Bottom High-Output Thruster -->
      <polygon points="288,210 312,210 300,245" fill="#ffd600" filter="url(#glow)"/>
      <!-- Swarm Mini Drones -->
      <circle cx="170" cy="120" r="8" fill="#00e676" filter="url(#glow)"/>
      <circle cx="430" cy="120" r="8" fill="#00e5ff" filter="url(#glow)"/>
      <circle cx="450" cy="230" r="7" fill="#ff007f" filter="url(#glow)"/>
    
  </g>

  <!-- Game Title Bottom Bar -->
  <rect x="24" y="318" width="552" height="42" rx="8" fill="#060214" fill-opacity="0.9" stroke="#00e676" stroke-width="1" stroke-opacity="0.5"/>
  <text x="42" y="345" font-family="'Segoe UI', system-ui, sans-serif" font-size="17" font-weight="800" fill="#ffffff" letter-spacing="1">ROGUE DRONE SWARM: EVOLVE</text>
  <text x="550" y="344" text-anchor="end" font-family="monospace" font-size="11" font-weight="700" fill="#00e676" letter-spacing="1">45 STAGES</text>
</svg>