<svg xmlns="http://www.w3.org/2000/svg" viewBox="0 0 600 380" width="600" height="380">
  <defs>
    <linearGradient id="bgGrad" x1="0%" y1="0%" x2="100%" y2="100%">
      <stop offset="0%" stop-color="#140824"/>
      <stop offset="60%" stop-color="#0a0414"/>
      <stop offset="100%" stop-color="#020108"/>
    </linearGradient>
    <filter id="glow" x="-20%" y="-20%" width="140%" height="140%">
      <feGaussianBlur stdDeviation="6" result="blur"/>
      <feComposite in="SourceGraphic" in2="blur" operator="over"/>
    </filter>
  </defs>

  <!-- Background Base -->
  <rect width="600" height="380" rx="16" fill="url(#bgGrad)"/>

  <!-- High-Tech Coordinate Grid -->
  <g stroke="#ff8800" stroke-opacity="0.12" stroke-width="1">
    <line x1="50" y1="0" x2="50" y2="380"/>
    <line x1="150" y1="0" x2="150" y2="380"/>
    <line x1="250" y1="0" x2="250" y2="380"/>
    <line x1="350" y1="0" x2="350" y2="380"/>
    <line x1="450" y1="0" x2="450" y2="380"/>
    <line x1="550" y1="0" x2="550" y2="380"/>
    <line x1="0" y1="60" x2="600" y2="60"/>
    <line x1="0" y1="140" x2="600" y2="140"/>
    <line x1="0" y1="220" x2="600" y2="220"/>
    <line x1="0" y1="300" x2="600" y2="300"/>
  </g>

  <!-- Outer Neon Trim -->
  <rect x="8" y="8" width="584" height="364" rx="12" fill="none" stroke="#ff8800" stroke-width="2" stroke-opacity="0.4"/>
  <rect x="14" y="14" width="572" height="352" rx="8" fill="none" stroke="#00f0ff" stroke-width="1" stroke-opacity="0.2"/>

  <!-- Category Watermark Banner -->
  <text x="32" y="44" font-family="'Segoe UI', monospace" font-size="12" font-weight="900" fill="#ff8800" letter-spacing="3" opacity="0.85">CYBER RPG &amp; ADVENTURES 45-THEME</text>

  <!-- Graphic Icon Payload -->
  <g>
    
      <!-- Deep Space Starfield -->
      <circle cx="160" cy="100" r="2" fill="#ffffff"/>
      <circle cx="440" cy="90" r="1.5" fill="#ffd600"/>
      <circle cx="210" cy="240" r="2" fill="#00f0ff"/>
      <circle cx="490" cy="220" r="1" fill="#ffffff"/>
      <!-- Giant Orbital Dock Station -->
      <ellipse cx="400" cy="170" rx="90" ry="35" fill="#111828" stroke="#ff8800" stroke-width="2.5"/>
      <line x1="400" y1="110" x2="400" y2="230" stroke="#00f0ff" stroke-width="3" filter="url(#glow)"/>
      <circle cx="400" cy="170" r="24" fill="#1b2840" stroke="#ffd600" stroke-width="2"/>
      <rect x="330" y="162" width="140" height="16" rx="4" fill="#ff8800" fill-opacity="0.3"/>
      <!-- Player Mercenary Gunship -->
      <g transform="translate(180, 160) rotate(-25)">
        <polygon points="40,0 -15,-16 -5,0 -15,16" fill="#00f0ff" stroke="#ffffff" stroke-width="1.5" filter="url(#glow)"/>
        <!-- Thruster Plume -->
        <polygon points="-5,0 -30,-6 -20,0 -30,6" fill="#ff8800" filter="url(#glow)"/>
        <!-- Photon Lasers -->
        <line x1="40" y1="-8" x2="110" y2="-8" stroke="#ffd600" stroke-width="2.5" filter="url(#glow)"/>
        <line x1="40" y1="8" x2="110" y2="8" stroke="#ffd600" stroke-width="2.5" filter="url(#glow)"/>
      </g>
    
  </g>

  <!-- Game Title Bottom Bar -->
  <rect x="24" y="318" width="552" height="42" rx="8" fill="#060214" fill-opacity="0.9" stroke="#ff8800" stroke-width="1" stroke-opacity="0.5"/>
  <text x="42" y="345" font-family="'Segoe UI', system-ui, sans-serif" font-size="17" font-weight="800" fill="#ffffff" letter-spacing="1">SPACE MERCENARY: STAR OUTPOST</text>
  <text x="550" y="344" text-anchor="end" font-family="monospace" font-size="11" font-weight="700" fill="#ff8800" letter-spacing="1">45 STAGES</text>
</svg>